{"title":"Bbuddah Hoga Terra Baap (2011) 400MB~AudioCleaned~DVDScrRip~Team","uid":6520769,"size":403087134,"categoryP":"video","categoryS":"movies","magnet":"?xt=urn:btih:640e6d7d3b78b0c8474b2b25e4eaac74e9ddd4dc&amp;dn=Bbuddah+Hoga+Terra+Baap+%282011%29+400MB%7EAudioCleaned%7EDVDScrRip%7ETeam&amp;tr=udp%3A%2F%2Ftracker.openbittorrent.com%3A80&amp;tr=udp%3A%2F%2Fopen.demonii.com%3A1337&amp;tr=udp%3A%2F%2Ftracker.coppersurfer.tk%3A6969&amp;tr=udp%3A%2F%2Fexodus.desync.com%3A6969","seeders":0,"leechers":1,"uploader":"saich9424","files":1,"time":1309982967,"description":"Complete name :Bbuddah Hoga Terra Baap (2011) 400MB~AudioCleaned~DVDScrRip~Team MJY~MovieJockey.Com.mp4 \nFormat : MPEG-4 \nFormat profile : Base Media / Version 2 \nCodec ID : mp42 \nFile size : 384 MiB \nDuration : 1h 54mn \nOverall bit rate : 468 Kbps \nEncoded date : UTC 2011-07-05 08:14:17 \nTagged date : UTC 2011-07-05 09:07:56 \nWriting application : HandBrake 0.9.5 2011010300 \n\nVideo \nID : 1 \nFormat : AVC \nFormat/Info : Advanced Video Codec \nFormat profile : &lt;a class=&quot;__cf_email__&quot; href=&quot;/cdn-cgi/l/email-protection&quot; data-cfemail=&quot;084569616648443a2639&quot;&gt;[email&amp;#160;protected]&lt;/a&gt;&lt;script cf-hash='f9e31' type=&quot;text/javascript&quot;&gt;\n/* &lt;![CDATA[ */!function(){try{var t=&quot;currentScript&quot;in document?document.currentScript:function(){for(var t=document.getElementsByTagName(&quot;script&quot;),e=t.length;e--;)if(t[e].getAttribute(&quot;cf-hash&quot;))return t[e]}();if(t&amp;&amp;t.previousSibling){var e,r,n,i,c=t.previousSibling,a=c.getAttribute(&quot;data-cfemail&quot;);if(a){for(e=&quot;&quot;,r=parseInt(a.substr(0,2),16),n=2;a.length-n;n+=2)i=parseInt(a.substr(n,2),16)^r,e+=String.fromCharCode(i);e=document.createTextNode(e),c.parentNode.replaceChild(e,c)}}}catch(u){}}();/* ]]&gt; */&lt;/script&gt; \nFormat settings, CABAC : Yes \nFormat settings, ReFrames : 4 frames \nCodec ID : avc1 \nCodec ID/Info : Advanced Video Coding \nDuration : 1h 54mn \nBit rate mode : Variable \nBit rate : 324 Kbps \nWidth : 672 pixels \nHeight : 288 pixels \nDisplay aspect ratio : 2.35:1 \nFrame rate mode : Variable \nFrame rate : 25.000 fps \nMinimum frame rate : 12.500 fps \nMaximum frame rate : 25.000 fps \nColor space : YUV \nChroma subsampling : 4:2:0 \nBit depth : 8 bits \nScan type : Progressive \nBits/(Pixel*Frame) : 0.067 \nStream size : 263 MiB (68%) \nWriting library : x264 core 112 \n\nAudio \nID : 2 \nFormat : AAC \nFormat/Info : Advanced Audio Codec \nFormat profile : LC \nCodec ID : 40 \nDuration : 1h 54mn \nBit rate mode : Variable \nBit rate : 144 Kbps \nMaximum bit rate : 221 Kbps \nChannel(s) : 2 channels \nChannel positions : Front: L R \nSampling rate : 24.0 KHz \nCompression mode : Lossy \nStream size : 118 MiB (31%) \nEncoded date : UTC 2011-07-05 08:14:17 \nTagged date : UTC 2011-07-05 09:07:56 ","torrent":{"xt":"urn:btih:640e6d7d3b78b0c8474b2b25e4eaac74e9ddd4dc","amp;dn":"Bbuddah+Hoga+Terra+Baap+%282011%29+400MB%7EAudioCleaned%7EDVDScrRip%7ETeam","amp;tr":["udp%3A%2F%2Ftracker.openbittorrent.com%3A80","udp%3A%2F%2Fopen.demonii.com%3A1337","udp%3A%2F%2Ftracker.coppersurfer.tk%3A6969","udp%3A%2F%2Fexodus.desync.com%3A6969"],"infoHash":"640e6d7d3b78b0c8474b2b25e4eaac74e9ddd4dc","infoHashBuffer":{"type":"Buffer","data":[100,14,109,125,59,120,176,200,71,75,43,37,228,234,172,116,233,221,212,220]},"announce":[],"urlList":[]}}